<svg width="20" height="20" viewBox="0 0 20 20" fill="none" xmlns="http://www.w3.org/2000/svg">
    <g clip-path="url(#clip0_4_58355)">
        <path
            d="M15.5927 12.7288C15.4807 12.8408 15.3275 12.9115 15.1507 12.9115C14.8089 12.9115 14.5261 12.6286 14.5261 12.2869L14.5261 5.75791L7.99715 5.75791C7.65538 5.75791 7.37254 5.47507 7.37254 5.1333C7.37254 4.79153 7.65538 4.50869 7.99715 4.50869L15.1507 4.50869C15.4925 4.50869 15.7753 4.79153 15.7753 5.1333L15.7753 12.2869C15.7753 12.4636 15.7046 12.6168 15.5927 12.7288Z"
            fill="white" />
        <path
            d="M15.493 5.67565L5.57583 15.5928C5.33423 15.8344 4.93354 15.8344 4.69194 15.5928C4.45035 15.3512 4.45035 14.9505 4.69194 14.7089L14.6091 4.79177C14.8507 4.55017 15.2514 4.55017 15.493 4.79177C15.7346 5.03336 15.7346 5.43405 15.493 5.67565Z"
            fill="white" />
    </g>
    <defs>
        <clipPath id="clip0_4_58355">
            <rect width="20" height="20" fill="white" />
        </clipPath>
    </defs>
</svg>
    