<svg width="20" height="20" viewBox="0 0 20 20" fill="none" xmlns="http://www.w3.org/2000/svg">
    <path
        d="M14.167 17.7082H5.83366C5.49199 17.7082 5.20866 17.4248 5.20866 17.0832C5.20866 16.7415 5.49199 16.4582 5.83366 16.4582H14.167C16.5503 16.4582 17.7087 15.2998 17.7087 12.9165V7.08317C17.7087 4.69984 16.5503 3.5415 14.167 3.5415H5.83366C3.45033 3.5415 2.29199 4.69984 2.29199 7.08317C2.29199 7.42484 2.00866 7.70817 1.66699 7.70817C1.32533 7.70817 1.04199 7.42484 1.04199 7.08317C1.04199 4.0415 2.79199 2.2915 5.83366 2.2915H14.167C17.2087 2.2915 18.9587 4.0415 18.9587 7.08317V12.9165C18.9587 15.9582 17.2087 17.7082 14.167 17.7082Z"
        fill="#292D32" />
    <path
        d="M9.99998 10.725C9.29998 10.725 8.59165 10.5083 8.04998 10.0666L5.44164 7.98331C5.17498 7.76664 5.12498 7.37497 5.34165 7.10831C5.55831 6.84164 5.94997 6.79164 6.21664 7.00831L8.82497 9.09164C9.45831 9.59998 10.5333 9.59998 11.1666 9.09164L13.775 7.00831C14.0416 6.79164 14.4416 6.83331 14.65 7.10831C14.8666 7.37497 14.825 7.77498 14.55 7.98331L11.9416 10.0666C11.4083 10.5083 10.7 10.725 9.99998 10.725Z"
        fill="#292D32" />
    <path
        d="M6.66699 14.375H1.66699C1.32533 14.375 1.04199 14.0917 1.04199 13.75C1.04199 13.4083 1.32533 13.125 1.66699 13.125H6.66699C7.00866 13.125 7.29199 13.4083 7.29199 13.75C7.29199 14.0917 7.00866 14.375 6.66699 14.375Z"
        fill="#292D32" />
    <path
        d="M4.16699 11.0415H1.66699C1.32533 11.0415 1.04199 10.7582 1.04199 10.4165C1.04199 10.0748 1.32533 9.7915 1.66699 9.7915H4.16699C4.50866 9.7915 4.79199 10.0748 4.79199 10.4165C4.79199 10.7582 4.50866 11.0415 4.16699 11.0415Z"
        fill="#292D32" />
</svg>
    